{"title":"Unfriended Dark Web 2018 720p WEB-DL x264 ESub [MW]","magnet":"magnet:?xt=urn:btih:f1cc111a9d3708625a3d63c72728cd3caf568d40&dn=Unfriended+Dark+Web+2018+720p+WEB-DL+x264+ESub+%5BMW%5D&tr=udp%3A%2F%2Ftracker.leechers-paradise.org%3A6969&tr=udp%3A%2F%2Fzer0day.ch%3A1337&tr=udp%3A%2F%2Fopen.demonii.com%3A1337&tr=udp%3A%2F%2Ftracker.coppersurfer.tk%3A6969&tr=udp%3A%2F%2Fexodus.desync.com%3A6969","uploader":"MFreaky","categoryP":"video","categoryS":"hd___movies","size":"924213366","seeders":"1","leechers":"3","description":" <a href=\"https://pichub.site/image/EFa3I\" rel=\"nofollow\" target=\"_NEW\">https://pichub.site/image/EFa3I</a> <a href=\"\nhttps://pichub.site/image/EFOaX\" rel=\"nofollow\" target=\"_NEW\">\nhttps://pichub.site/image/EFOaX</a> <a href=\"\nhttps://pichub.site/image/EFR88\" rel=\"nofollow\" target=\"_NEW\">\nhttps://pichub.site/image/EFR88</a> <a href=\"\nhttps://pichub.site/image/EFDq5\" rel=\"nofollow\" target=\"_NEW\">\nhttps://pichub.site/image/EFDq5</a> <a href=\"\nhttps://pichub.site/image/EFSlJ\" rel=\"nofollow\" target=\"_NEW\">\nhttps://pichub.site/image/EFSlJ</a>\r\n\r\nIMDB <a href=\"\nhttps://www.imdb.com/title/tt4761916/\" rel=\"nofollow\" target=\"_NEW\">\nhttps://www.imdb.com/title/tt4761916/</a>\r\n\r\nVideo\r\nFormat                                   : AVC\r\nFormat/Info                              : Advanced Video Codec\r\nFormat profile                           : High@L4.1\r\nFormat settings                          : CABAC / 4 Ref Frames\r\nFormat settings, CABAC                   : Yes\r\nFormat settings, RefFrames               : 4 frames\r\nCodec ID                                 : V_MPEG4/ISO/AVC\r\nDuration                                 : 1 h 32 min\r\nBit rate                                 : 1 200 kb/s\r\nWidth                                    : 1 280 pixels\r\nHeight                                   : 720 pixels\r\nDisplay aspect ratio                     : 16:9\r\nFrame rate mode                          : Constant\r\nFrame rate                               : 23.976 (24000/1001) FPS\r\nColor space                              : YUV\r\nChroma subsampling                       : 4:2:0\r\nBit depth                                : 8 bits\r\nBits/(Pixel*Frame)                       : 0.054\r\nStream size                              : 795 MiB (90%)\r\nWriting library                          : x264 core 155 r2901 7d0ff22\r\n\r\nAudio\r\nFormat                                   : AAC\r\nFormat/Info                              : Advanced Audio Codec\r\nFormat profile                           : LC\r\nCodec ID                                 : A_AAC-2\r\nDuration                                 : 1 h 32 min\r\nBit rate                                 : 128 kb/s\r\nChannel(s)                               : 2 channels\r\nChannel positions                        : Front: L R\r\nSampling rate                            : 48.0 kHz\r\nFrame rate                               : 46.875 FPS (1024 SPF)\r\nStream size                              : 84.5 MiB (10%)\r\nLanguage                                 : English","last_updated":"2018-10-03T12:08:00.926Z","parsed":{"xt":"urn:btih:f1cc111a9d3708625a3d63c72728cd3caf568d40","dn":"Unfriended Dark Web 2018 720p WEB-DL x264 ESub [MW]","tr":["udp://exodus.desync.com:6969","udp://open.demonii.com:1337","udp://tracker.coppersurfer.tk:6969","udp://tracker.leechers-paradise.org:6969","udp://zer0day.ch:1337"],"infoHash":"f1cc111a9d3708625a3d63c72728cd3caf568d40","infoHashBuffer":{"type":"Buffer","data":[241,204,17,26,157,55,8,98,90,61,99,199,39,40,205,60,175,86,141,64]},"name":"Unfriended Dark Web 2018 720p WEB-DL x264 ESub [MW]","announce":["udp://exodus.desync.com:6969","udp://open.demonii.com:1337","udp://tracker.coppersurfer.tk:6969","udp://tracker.leechers-paradise.org:6969","udp://zer0day.ch:1337"],"urlList":[]}}